HIERARCHY
ROOT simHips
{
  OFFSET -189.851 99.7575 44.8907
  CHANNELS 6 Xposition Yposition Zposition Zrotation Xrotation Yrotation
  JOINT simSpine
  {
    OFFSET -0.000355721 21.3001 -0.016921
    CHANNELS 3 Zrotation Xrotation Yrotation
    JOINT simLeftArm
    {
      OFFSET 13.5181 21.3012 0
      CHANNELS 3 Zrotation Xrotation Yrotation
      JOINT simLeftForeArm
      {
        OFFSET 24.5783 0 0
        CHANNELS 3 Zrotation Xrotation Yrotation
        JOINT simLeftHand
        {
          OFFSET 24.5783 0 0
          CHANNELS 3 Zrotation Xrotation Yrotation
          End Site
          {
            OFFSET 7.32568 1.52588e-05 0.0169305
          }
        }
      }
    }
    JOINT simHead
    {
      OFFSET 0 27.4458 -0.00489235
      CHANNELS 3 Zrotation Xrotation Yrotation
      End Site
      {
        OFFSET 0 0 0
      }
    }
    JOINT simRightArm
    {
      OFFSET -13.5174 21.3012 0
      CHANNELS 3 Zrotation Xrotation Yrotation
      JOINT simRightForeArm
      {
        OFFSET -24.5783 0 0
        CHANNELS 3 Zrotation Xrotation Yrotation
        JOINT simRightHand
        {
          OFFSET -24.5783 0 0
          CHANNELS 3 Zrotation Xrotation Yrotation
          End Site
          {
            OFFSET -7.32568 1.52588e-05 0.0169305
          }
        }
      }
    }
  }
  JOINT simRightUpLeg
  {
    OFFSET -8.44614 -9.41038 0.835684
    CHANNELS 3 Zrotation Xrotation Yrotation
    JOINT simRightLeg
    {
      OFFSET 0 -40.9639 0
      CHANNELS 3 Zrotation Xrotation Yrotation
      JOINT simRightFoot
      {
        OFFSET 0 -40.9639 0
        CHANNELS 3 Zrotation Xrotation Yrotation
        End Site
        {
          OFFSET 0.50614 -9.67405 14.6709
        }
      }
    }
  }
  JOINT simLeftUpLeg
  {
    OFFSET 8.44614 -9.41038 0.835684
    CHANNELS 3 Zrotation Xrotation Yrotation
    JOINT simLeftLeg
    {
      OFFSET 0 -40.9639 0
      CHANNELS 3 Zrotation Xrotation Yrotation
      JOINT simLeftFoot
      {
        OFFSET 0 -40.9639 0
        CHANNELS 3 Zrotation Xrotation Yrotation
        End Site
        {
          OFFSET -0.50614 -9.67405 14.6709
        }
      }
    }
  }
}
MOTION
Frames:	20
Frame Time:	0.0333333
-189.851 99.7575 44.8907 0.0212359 -0.312196 -0.561691 -1.0545 -1.20898 0.0133845 18.9059 -6.21306 -0.891478 -3.33816 -0.118181 2.6692e-05 -1.48121 3.1119 -0.259359 -1.04338 1.71944 -10.4413 -12.952 -7.55489 0.714193 2.93198 0.40448 -3.16244e-05 0.433275 1.3083 -0.440425 3.8782 0.340724 0.668342 0.133274 0.312253 0.0107717 -3.78915 -0.632273 -0.0943737 -1.41997 -0.644661 0.247549 -0.0250043 1.92043 -0.0165673 1.73322 -1.22486 0.517671 
-189.862 99.7573 44.8936 0.0215934 -0.287771 -0.538186 -1.0734 -1.2304 -0.0347169 18.8932 -6.26808 -0.856438 -3.32299 -0.118181 2.6692e-05 -1.41457 3.08615 -0.159292 -1.04853 1.77324 -10.4246 -12.9337 -7.68215 0.692327 2.93536 0.40448 -3.16244e-05 0.424209 1.29956 -0.439053 3.90376 0.360955 0.663887 0.0811094 0.213652 0.0107716 -3.75213 -0.585782 -0.140573 -1.44215 -0.610983 0.24794 0.0117872 1.79994 -0.0165662 1.73976 -1.16284 0.496634 
-189.862 99.7574 44.9149 0.021388 -0.303908 -0.548332 -1.0516 -1.24476 -0.0488622 18.8307 -6.22095 -0.797533 -3.30393 -0.118181 2.6692e-05 -1.31777 3.00006 -0.151116 -1.11944 1.83248 -10.384 -12.954 -7.76026 0.715503 2.96533 0.40448 -3.16244e-05 0.449068 1.34713 -0.361541 3.89167 0.399174 0.690141 0.0967065 0.209343 0.0107716 -3.78326 -0.5835 -0.109345 -1.44823 -0.570671 0.27904 0.0123144 1.79059 -0.0165661 1.71715 -1.18049 0.496038 
-189.862 99.7573 44.9175 0.0213441 -0.299399 -0.565004 -1.04325 -1.24007 -0.0554923 18.7619 -6.22002 -0.745226 -3.29634 -0.118181 2.6692e-05 -1.39279 3.07463 -0.184518 -1.18724 1.80438 -10.3227 -12.9514 -7.82209 0.744264 2.96332 0.40448 -3.16244e-05 0.510675 1.36806 -0.398617 3.90459 0.449995 0.71609 0.0604731 0.131122 0.0107716 -3.83104 -0.510163 -0.0941509 -1.42966 -0.609583 0.297885 -0.0172672 1.86875 -0.0165668 1.71597 -1.19489 0.496945 
-189.861 99.7575 44.9175 0.0211858 -0.305514 -0.583369 -1.04054 -1.22858 -0.0357025 18.691 -6.31604 -0.774605 -3.32349 -0.118181 2.6692e-05 -1.44334 3.05658 -0.222595 -1.26027 1.75437 -10.3259 -12.9485 -7.85538 0.750742 2.94587 0.40448 -3.16244e-05 0.585227 1.31525 -0.450736 3.895 0.404625 0.695703 0.097374 0.222773 0.0107717 -3.83341 -0.567789 -0.071362 -1.4444 -0.589937 0.303681 0.0106522 1.83619 -0.0165665 1.77315 -1.18099 0.516983 
-189.857 99.7573 44.9341 0.0206141 -0.329665 -0.639999 -1.04329 -1.21875 0.0121917 18.6372 -6.35517 -0.776783 -3.32801 -0.118181 2.6692e-05 -1.45162 3.03688 -0.170044 -1.29872 1.67241 -10.2757 -12.9409 -7.86299 0.779025 2.94172 0.40448 -3.16244e-05 0.616129 1.28038 -0.415378 3.88802 0.447532 0.777907 0.0909353 0.21261 0.0107716 -3.78888 -0.595092 -0.0904827 -1.44978 -0.532969 0.333364 0.0106523 1.81115 -0.0165663 1.81184 -1.20085 0.54287 
-189.874 99.7573 44.9189 0.020639 -0.337309 -0.621264 -1.07519 -1.17046 -0.0001693 18.6141 -6.43344 -0.75242 -3.30514 -0.118181 2.6692e-05 -1.4982 3.05458 -0.182164 -1.31112 1.55696 -10.2651 -12.9334 -7.93996 0.799026 2.93358 0.40448 -3.16244e-05 0.594343 1.28707 -0.454092 3.89559 0.420947 0.735982 0.113144 0.228788 0.0107717 -3.80344 -0.587114 -0.105675 -1.44139 -0.533492 0.254956 0.00976572 1.80627 -0.0165663 1.72316 -1.16634 0.589103 
-189.888 99.7572 44.9135 0.0209509 -0.318388 -0.602063 -1.09853 -1.16298 -0.0125645 18.6209 -6.49042 -0.782306 -3.31783 -0.118181 2.6692e-05 -1.53659 3.06358 -0.242731 -1.29913 1.48645 -10.2449 -12.9267 -7.96354 0.830904 2.94877 0.40448 -3.16244e-05 0.551547 1.22198 -0.41856 3.92313 0.44113 0.743525 0.0711214 0.17055 0.0107716 -3.81752 -0.549302 -0.0891243 -1.40291 -0.624904 0.304828 -0.0292793 1.93605 -0.0165675 1.75329 -1.23453 0.510018 
-189.889 99.7575 44.9121 0.0212409 -0.294284 -0.594913 -1.10967 -1.19264 0.00809707 18.614 -6.46589 -0.844262 -3.31132 -0.118181 2.6692e-05 -1.56137 3.14931 -0.248428 -1.30275 1.48399 -10.2407 -12.9283 -7.93837 0.8357 2.95392 0.40448 -3.16244e-05 0.581199 1.18361 -0.402905 3.91714 0.386209 0.738457 0.0912705 0.217454 0.0107716 -3.78805 -0.593658 -0.102461 -1.41604 -0.596634 0.308231 0.0102323 1.81955 -0.0165664 1.78682 -1.18212 0.527937 
-189.901 99.7575 44.8988 0.0215972 -0.277163 -0.557999 -1.13839 -1.18023 -0.00467224 18.6511 -6.50658 -0.882641 -3.2979 -0.118181 2.6692e-05 -1.55135 3.00618 -0.207357 -1.3103 1.52069 -10.2643 -12.9329 -7.97966 0.87515 3.01404 0.40448 -3.16244e-05 0.583969 1.14763 -0.386856 3.91598 0.344185 0.676663 0.0939962 0.230288 0.0107717 -3.77907 -0.591557 -0.1018 -1.39674 -0.66732 0.258845 -0.0286506 1.91251 -0.0165673 1.65411 -1.24907 0.530181 
-189.903 99.7576 44.8935 0.0217219 -0.282899 -0.521441 -1.15242 -1.16318 -0.0216075 18.6989 -6.5412 -0.922188 -3.29919 -0.118181 2.6692e-05 -1.532 2.97287 -0.23389 -1.38185 1.56266 -10.2544 -12.9515 -8.00719 0.877818 3.03347 0.40448 -3.16244e-05 0.631976 1.1195 -0.357148 3.9141 0.3674 0.699515 0.101141 0.202161 0.0107716 -3.76688 -0.57641 -0.14262 -1.41667 -0.601561 0.21082 0.0112065 1.78422 -0.0165661 1.67612 -1.1642 0.531394 
-189.895 99.7573 44.9003 0.0216576 -0.303081 -0.498879 -1.14206 -1.13306 -0.0345214 18.7401 -6.41553 -0.921635 -3.26639 -0.118181 2.6692e-05 -1.51402 3.07883 -0.179271 -1.4383 1.60177 -10.1519 -12.981 -7.95783 0.858722 3.00616 0.404791 -3.16244e-05 0.59857 1.15158 -0.3296 3.91299 0.408936 0.643871 0.0967856 0.17277 0.0107716 -3.75939 -0.57578 -0.105469 -1.41696 -0.618959 0.215604 -0.00424371 1.85379 -0.0165667 1.65713 -1.20461 0.513295 
-189.894 99.7574 44.898 0.0195556 -0.300792 -0.47598 -1.14146 -1.1023 -0.0545532 18.7592 -6.38509 -0.940214 -3.27135 -0.118181 2.6692e-05 -1.36494 3.00643 -0.129923 -1.52167 1.71716 -10.1049 -12.9825 -7.97093 0.864501 2.98068 0.405265 -3.16244e-05 0.629644 1.16052 -0.347087 3.91396 0.387967 0.598159 0.100323 0.216378 0.0107716 -3.76352 -0.59659 -0.101923 -1.41445 -0.656438 0.213652 -0.0099946 1.90043 -0.0165671 1.69625 -1.21581 0.48926 
-189.871 99.7602 44.9139 0.00886809 -0.288427 -0.509214 -1.09015 -1.12903 -0.0203636 18.7218 -6.33216 -0.936924 -3.26314 -0.118181 2.6692e-05 -1.40945 3.02745 -0.236011 -1.54915 1.85877 -9.98455 -12.9868 -8.06808 0.887012 2.96883 0.405876 -3.16244e-05 0.641732 1.10291 -0.330502 3.91653 0.427916 0.680523 0.0723516 0.142623 0.0107716 -3.74953 -0.550551 -0.100608 -1.4131 -0.660455 0.211216 -0.0114975 1.91822 -0.0165673 1.74477 -1.22235 0.527115 
-189.857 99.7617 44.903 0.0119478 -0.302476 -0.515615 -1.08041 -1.07054 -0.0196083 18.7085 -6.3802 -0.971515 -3.30071 -0.118181 2.6692e-05 -1.4914 3.08363 -0.222743 -1.4928 1.83919 -9.87554 -12.9583 -8.15691 0.921201 2.95869 0.406599 -3.16244e-05 0.645462 1.10106 -0.381941 3.89032 0.39532 0.619863 0.123942 0.21578 0.0107716 -3.81148 -0.553663 -0.051914 -1.41761 -0.648145 0.21407 -0.0268306 1.92142 -0.0165673 1.73795 -1.22709 0.533466 
-189.841 99.7626 44.9063 0.00941804 -0.313011 -0.512363 -1.0622 -1.03709 -0.0206546 18.6715 -6.46003 -0.977232 -3.30235 -0.118181 2.6692e-05 -1.58634 3.08589 -0.231852 -1.43999 1.77786 -9.89227 -12.9373 -8.20434 0.942519 2.97053 0.407406 -3.16244e-05 0.688757 1.1807 -0.335991 3.88788 0.399776 0.622112 0.103915 0.215739 0.0107716 -3.77575 -0.562045 -0.0810391 -1.44527 -0.577929 0.243437 0.00192611 1.82029 -0.0165664 1.83547 -1.14921 0.500431 
-189.812 99.7637 44.9236 0.00478377 -0.297981 -0.557202 -1.02189 -1.05003 0.0200174 18.6175 -6.52044 -1.00342 -3.30224 -0.118181 2.6692e-05 -1.55102 3.06007 -0.188871 -1.39558 1.68842 -9.97337 -12.9264 -8.25342 0.984249 3.01088 0.408274 -3.16244e-05 0.741444 1.1309 -0.316122 3.86175 0.388394 0.659982 0.121322 0.241068 0.0107717 -3.76328 -0.592455 -0.0775026 -1.46765 -0.590622 0.293913 0.0277937 1.83948 -0.0165666 1.75984 -1.18353 0.499939 
-189.801 99.7646 44.9239 0.00307544 -0.273838 -0.536583 -1.01733 -1.03996 0.0016215 18.5832 -6.55269 -1.01808 -3.26718 -0.118181 2.6692e-05 -1.5881 3.03361 -0.198087 -1.33037 1.60931 -10.1212 -12.8812 -8.34805 1.00283 3.04736 0.409176 -3.16244e-05 0.725211 1.14768 -0.343335 3.87178 0.404799 0.71179 0.0886041 0.163204 0.0107716 -3.73437 -0.550135 -0.1279 -1.46191 -0.677403 0.266801 0.0121391 1.93522 -0.0165675 1.76189 -1.23952 0.496356 
-189.789 99.7658 44.9122 0.00777023 -0.267768 -0.500954 -1.02174 -0.983385 -0.0308186 18.5853 -6.59186 -1.04941 -3.27395 -0.118181 2.6692e-05 -1.66457 3.08467 -0.25547 -1.26625 1.4687 -10.1949 -12.8391 -8.34476 0.970192 3.03467 0.410086 -3.16244e-05 0.722801 1.17761 -0.351192 3.84818 0.330333 0.629864 0.118049 0.271524 0.0107717 -3.7751 -0.572301 -0.0995515 -1.46482 -0.673265 0.247154 -0.0188541 1.90371 -0.0165672 1.77436 -1.19359 0.474562 
-189.769 99.7668 44.9148 -0.00820009 -0.24955 -0.486303 -0.990264 -0.963196 -0.0469931 18.5895 -6.57683 -1.09086 -3.29237 -0.118181 2.6692e-05 -1.68233 3.105 -0.209827 -1.22759 1.37053 -10.2224 -12.8283 -8.33892 0.956054 3.03652 0.410979 -3.16244e-05 0.775609 1.18259 -0.344823 3.86073 0.338746 0.600621 0.0994315 0.219892 0.0107716 -3.76252 -0.535182 -0.0773736 -1.4731 -0.641349 0.187743 0.0137327 1.79183 -0.0165661 1.70438 -1.13124 0.516213 
